# xmcd
#
# Track frame offsets:
#	150
#	16041
#	31401
#	50718
#	67978
#	83030
#	99515
#	117479
#	130641
#	147544
#	165867
#	179198
#	194085
#	209836
#	225324
#	241810
#	259658
#	272520
#	286624
#	302289
#
# Disc length: 4255 seconds
# Revision: 0
# Processed by: cddbd v1.5.2PL0 Copyright (c) Steve Scherf et al.
# Submitted via: dBpowerAMP V12.0
#
DISCID=13109d14
DTITLE=Various Artist - Country Radio April 2012
DYEAR=2012
DGENRE=Country
TTITLE0=Luke Bryan - Drunk On You (Explicit Lyrics)
TTITLE1=Carrie Underwood - Good Girl
TTITLE2=Kenny Chesney - Seven Days
TTITLE3=Marlee Scott Feat Vince Gill - Train Wreck
TTITLE4=Easton Corbin - Lovin You Is Fun
TTITLE5=Doc Walker - Where I Belong
TTITLE6=Jason Cassidy - What If
TTITLE7=Shane Chisholm - No One Came
TTITLE8=Dustin Lynch - Cowboys and Angels
TTITLE9=Sean Hogan - Like We Never Had To Say Goodbye
TTITLE10=Josh Thompson - Comin Around
TTITLE11=Deric Ruttan - Main Street 1979
TTITLE12=Lindsay Broughton - Holdin Onto You
TTITLE13=Orchard - Stick To Your Guns
TTITLE14=Josh Kelley - Naleigh Moon
TTITLE15=Shooter Jennings - Deep and The Dollar
TTITLE16=Tyler Farr - Hot Mess
TTITLE17=James Wesley - Walking Contradiction
TTITLE18=Her and Kings County - White Trash Country Boy (Explicit Lyrics)
TTITLE19=Canaan Smith - We Got Us
EXTD=
EXTT0=
EXTT1=
EXTT2=
EXTT3=
EXTT4=
EXTT5=
EXTT6=
EXTT7=
EXTT8=
EXTT9=
EXTT10=
EXTT11=
EXTT12=
EXTT13=
EXTT14=
EXTT15=
EXTT16=
EXTT17=
EXTT18=
EXTT19=
PLAYORDER=
